<svg width="200" height="200" viewBox="0 0 200 200" xmlns="http://www.w3.org/2000/svg">
  <!-- 背景圆形 - 白色填充 -->
  <circle cx="100" cy="100" r="95" fill="#ffffff" stroke="#333333" stroke-width="2"/>
  <circle cx="100" cy="100" r="88" fill="none" stroke="#333333" stroke-width="5"/>

  <!-- 卡牌图案 -->
  <g fill="#333333">
    <rect x="75" y="60" width="30" height="40" rx="2" transform="rotate(-15 90 80)" stroke="white" stroke-width="1"/>
    <rect x="85" y="55" width="30" height="40" rx="2" transform="rotate(5 100 75)" stroke="white" stroke-width="1"/>
    <rect x="95" y="60" width="30" height="40" rx="2" transform="rotate(25 110 80)" stroke="white" stroke-width="1"/>

    <path d="M70,105 C70,105 65,95 75,85 C85,75 105,70 120,80 C130,85 135,100 130,110 L120,105 C120,105 125,95 115,90 C105,85 90,90 85,95 L70,105 Z" />
  </g>

  <!-- DEALER 文字 -->
  <text x="100" y="155" font-family="Arial, Helvetica, sans-serif" font-weight="bold" font-size="24" text-anchor="middle" fill="#333333" letter-spacing="2">DEALER</text>
</svg>
